<svg width="67" height="32" viewBox="0 0 67 32" fill="none" xmlns="http://www.w3.org/2000/svg">
<path d="M7.32196 14.6439C11.3658 14.6439 14.6439 11.3658 14.6439 7.32196C14.6439 3.27815 11.3658 0 7.32196 0C3.27815 0 0 3.27815 0 7.32196C0 11.3658 3.27815 14.6439 7.32196 14.6439Z" fill="#2E4ACE"/>
<path d="M36.8533 0L32.6214 7.33036L22.856 24.2414V24.2834C21.5691 26.4988 19.7229 28.3372 17.5021 29.6149C15.2814 30.8925 12.7641 31.5644 10.2021 31.5634H7.30518L11.5035 24.2414L21.3026 7.33036C22.5859 5.1025 24.4334 3.252 26.6592 1.96516C28.8851 0.678306 31.4106 0.000512337 33.9816 0H36.8533Z" fill="#2E4ACE"/>
<path d="M51.6232 0L47.3997 7.33036L37.6258 24.2414V24.2834C36.339 26.4988 34.4928 28.3372 32.272 29.6149C30.0513 30.8925 27.534 31.5644 24.9719 31.5634H22.0751L26.2734 24.2414L36.106 7.33036C37.3865 5.10742 39.2288 3.2601 41.4482 1.97354C43.6676 0.686989 46.1862 0.00640299 48.7515 0H51.6232Z" fill="#2E4ACE"/>
<path d="M66.3847 0L62.1359 7.33036L52.3873 24.2414V24.2834C51.1004 26.4988 49.2542 28.3372 47.0335 29.6149C44.8128 30.8925 42.2954 31.5644 39.7334 31.5634H36.8365L41.0349 24.2414L50.8339 7.33036C52.1172 5.1025 53.9648 3.252 56.1906 1.96516C58.4164 0.678306 60.942 0.000512337 63.513 0H66.3847Z" fill="#2E4ACE"/>
</svg>
